<?xml version="1.0" encoding="utf-8"?>
<!-- Generator: Adobe Illustrator 15.1.0, SVG Export Plug-In . SVG Version: 6.00 Build 0)  -->
<!DOCTYPE svg PUBLIC "-//W3C//DTD SVG 1.1//EN" "http://www.w3.org/Graphics/SVG/1.1/DTD/svg11.dtd">
<svg version="1.1" id="Layer_1" xmlns="http://www.w3.org/2000/svg" xmlns:xlink="http://www.w3.org/1999/xlink" x="0px" y="0px"
	 width="100px" height="100px" viewBox="0 0 100 100" enable-background="new 0 0 100 100" xml:space="preserve">
<g id="Layer_2">
</g>
<g>
	<path d="M73.479,73.442c-3.716,0-6.734-3.021-6.734-6.736s3.019-6.735,6.734-6.735c3.715,0,6.736,3.021,6.736,6.735
		S77.193,73.442,73.479,73.442L73.479,73.442z M73.479,62.711c-2.203,0-3.995,1.791-3.995,3.995s1.792,3.996,3.995,3.996
		c2.204,0,3.995-1.792,3.995-3.996S75.683,62.711,73.479,62.711L73.479,62.711z"/>
	<path d="M64.549,67.882c-0.648,0-1.176-0.527-1.176-1.177c0-5.571,4.532-10.104,10.104-10.104c2.7,0,5.238,1.052,7.146,2.96
		c0.458,0.46,0.458,1.202,0,1.661c-0.459,0.459-1.204,0.459-1.661,0c-1.465-1.466-3.412-2.271-5.485-2.271
		c-4.276,0-7.755,3.479-7.755,7.755C65.724,67.354,65.197,67.882,64.549,67.882L64.549,67.882z"/>
	<path d="M45.692,31.883c-0.192-0.408-0.316-0.862-0.374-1.36c-0.167-1.456,0.215-2.769,1.143-3.936
		c0.927-1.167,2.12-1.834,3.578-2.001c1.243-0.143,2.378,0.113,3.408,0.77c1.027,0.658,1.769,1.535,2.22,2.635l-1.386,0.158
		c0.047,0.103,0.112,0.527,0.198,1.273c0.108,0.958-0.14,1.833-0.752,2.623c-0.611,0.79-1.415,1.242-2.41,1.354
		c-1.207,0.138-2.245-0.264-3.108-1.208c-0.171-0.233-0.301-0.416-0.386-0.551L45.692,31.883z"/>
	<path d="M68.096,40.788c-2.108,0.098-3.782,1.468-3.782,3.147c0,1.682,1.674,3.051,3.782,3.149V40.788z"/>
	<path d="M67.632,53.443c-0.21-0.702-3.038-6.774-3.9-8.619c-0.191-0.414-0.606-0.679-1.064-0.679h-2.06
		c0.415-0.298,0.69-0.784,0.69-1.335c-0.002-0.908-0.738-1.645-1.645-1.645h-0.002l-5.856,0.002l-2.024-5.575
		c-0.048-0.129-0.113-0.244-0.185-0.354c-0.181-0.365-0.443-0.679-0.822-0.886c-0.862-0.47-2.15-0.608-2.977-0.372
		c-0.822,0.234-1.91,0.705-2.379,2.262l-2.582,10.947c-0.099,0.458-0.054,1.156,0.142,1.694c0.314,0.863,1.292,1.959,2.472,2.116
		l6.991,0.625c-0.264-0.003-0.613-0.005-1.053,0.003H41.245v-9.642v-0.17v-3.859H22.864v3.859v0.17V51.7h10.061
		c-0.553,0.182-0.965,0.707-0.946,1.279c0.019,0.606,0.816,1.853,1.42,2.711c-4.364,2.534-7.94,9.606-7.94,9.606
		s-0.095,0.218-0.087,0.469c0.019,0.648,0.525,1.177,1.174,1.177h2.373c0.125,3.604,3.089,6.5,6.724,6.5
		c3.635,0,6.6-2.896,6.725-6.501h15.405c0.107,0,2.63-0.028,4.253-2.46c0.385-0.522,5.294-7.223,5.621-8.534
		C67.934,54.809,67.93,54.433,67.632,53.443z M25.092,40.184h13.925v1.631H25.092V40.184z M25.092,44.042h6.049v2.071h1.915v-2.071
		h5.961v5.429H25.092V44.042z M35.643,70.702c-2.124,0-3.861-1.667-3.984-3.761h7.967C39.504,69.035,37.767,70.702,35.643,70.702z
		 M44.49,63.661c-0.105,0.284-0.374,0.46-0.661,0.46c-0.082,0-0.165-0.015-0.246-0.044c-0.364-0.135-0.551-0.541-0.415-0.907
		c0.008-0.023,0.986-2.779-0.545-4.993c-0.96-1.385-3.808-1.385-4.823-1.268c-0.387,0.044-0.738-0.23-0.782-0.618
		c-0.044-0.388,0.232-0.737,0.619-0.781c0.185-0.021,4.513-0.493,6.145,1.864C45.739,60.2,44.542,63.521,44.49,63.661z
		 M65.378,55.334c-0.294,0.803-3.631,5.559-5.263,7.777c-0.012,0.016-0.021,0.032-0.033,0.049c-0.909,1.376-2.269,1.43-2.31,1.432
		h-5.59c-1.695-1.231-3.569-3.28-3.223-6.188c0.391-3.291,4.339-5.116,4.545-6.033c0.092-0.424-0.123-0.6-0.312-0.676l3.825,0.342
		l-3.123,9.266c-0.313,1.253,0.666,2.271,1.252,2.467c1.05,0.35,2.743,0.195,3.368-2.467c0.134-0.565,3.331-10.34,3.331-10.34
		c0.469-1.528-0.823-3.251-2.584-3.505l-9.063-1.492l0.225-1.051c-0.025-0.034-2.568-5.154-2.568-5.154
		c-0.172-0.349-0.029-0.772,0.32-0.945c0.348-0.173,0.771-0.029,0.944,0.319l2.374,4.79c0.19,0.366,0.732,0.537,1.147,0.537
		l5.71-0.002c-0.234,0.215-0.384,0.521-0.384,0.864c0,0.648,0.527,1.176,1.176,1.176h2.776c1.621,3.479,3.311,7.17,3.46,7.622
		C65.544,54.664,65.544,54.664,65.378,55.334z"/>
</g>
</svg>
