<?xml version="1.0" encoding="utf-8"?>
<!-- Generator: Adobe Illustrator 15.1.0, SVG Export Plug-In . SVG Version: 6.00 Build 0)  -->
<!DOCTYPE svg PUBLIC "-//W3C//DTD SVG 1.1//EN" "http://www.w3.org/Graphics/SVG/1.1/DTD/svg11.dtd">
<svg version="1.1" id="Layer_1" xmlns="http://www.w3.org/2000/svg" xmlns:xlink="http://www.w3.org/1999/xlink" x="0px" y="0px"
	 width="100px" height="100px" viewBox="0 0 100 100" enable-background="new 0 0 100 100" xml:space="preserve">
<g>
	<circle fill="none" cx="51" cy="65.374" r="1.206"/>
	<path fill="none" d="M55.992,41.953c-0.005-0.002-0.011-0.005-0.017-0.008c-0.852,0.838-1.796,1.502-2.805,1.902
		c-0.685,0.272-1.398,0.422-2.132,0.422c-0.734,0-1.448-0.15-2.133-0.422c-1.019-0.403-1.971-1.077-2.829-1.925c0,0,0,0,0,0
		c0,1.045-0.799,1.642-1.341,1.925c-0.064,0.034-0.125,0.063-0.181,0.088c-0.135,0.062-0.238,0.098-0.284,0.113v0
		c0.032,0.269,0.151,0.527,0.343,0.771c0.896,1.147,3.416,2.802,6.387,2.802s5.488-1.655,6.386-2.802
		c0.191-0.244,0.312-0.503,0.343-0.771c0.002-0.008,0.002-0.016,0.002-0.024C57.365,43.891,56.014,43.301,55.992,41.953z"/>
	<path fill="none" d="M58.94,32.031c-0.027-0.013-0.056-0.022-0.085-0.027l-0.847,0.815l-10.428-5.368
		c-3.41-0.316-3.952,4.239-3.993,4.646c-0.001,0.019-0.002,0.028-0.002,0.028v0.001v-0.001c-0.122-0.098-0.244-0.143-0.363-0.122
		c-0.051,0.008-0.1,0.03-0.145,0.063c-0.329,0.236-0.461,1.062-0.294,1.998c0.127,0.71,0.395,1.304,0.688,1.596
		c0.145,0.145,0.296,0.216,0.439,0.192c0.069-0.013,0.132-0.046,0.189-0.099c0.692,2.155,2.016,4.303,3.685,5.6
		c0.984,0.765,2.087,1.233,3.255,1.233c1.16,0,2.258-0.463,3.237-1.22c1.678-1.295,3.008-3.45,3.704-5.613
		c0.056,0.053,0.12,0.086,0.188,0.099c0.123,0.021,0.252-0.029,0.379-0.135c0.315-0.268,0.612-0.893,0.748-1.653
		C59.473,33.073,59.312,32.205,58.94,32.031z"/>
	<path d="M62.346,44.593c-0.095-0.022-0.191-0.042-0.288-0.062c-2.491-2.301-0.791-11.91-0.791-11.91
		c0-14.646-9.907-13.206-9.907-13.206c-0.121-0.008-0.24-0.012-0.359-0.016c-0.118,0.004-0.238,0.008-0.358,0.015
		c0,0-9.907-1.441-9.907,13.206c0,0,1.7,9.609-0.792,11.91c-0.097,0.02-0.194,0.04-0.288,0.062c-0.807,0.188-4.5,0.432-6.587,7.173
		h35.867C66.847,45.024,63.153,44.781,62.346,44.593z M57.729,44.049c-0.031,0.269-0.151,0.527-0.343,0.771
		c-0.897,1.147-3.416,2.802-6.386,2.802s-5.49-1.655-6.387-2.802c-0.191-0.244-0.311-0.503-0.343-0.771v0
		c0.046-0.015,0.148-0.052,0.284-0.113c0.056-0.026,0.116-0.054,0.181-0.088c0.542-0.284,1.341-0.88,1.341-1.925h0
		c0.857,0.85,1.81,1.522,2.829,1.925c0.685,0.272,1.398,0.422,2.133,0.422c0.733,0,1.447-0.15,2.132-0.422
		c1.009-0.399,1.953-1.064,2.805-1.902c0.006,0.002,0.013,0.005,0.017,0.008c0.021,1.348,1.373,1.938,1.739,2.073
		C57.731,44.034,57.731,44.042,57.729,44.049z M59.294,34.064c-0.134,0.76-0.432,1.386-0.747,1.653
		c-0.126,0.107-0.255,0.157-0.379,0.136c-0.068-0.012-0.133-0.046-0.188-0.1c-0.696,2.164-2.027,4.319-3.704,5.614
		c-0.979,0.756-2.077,1.22-3.236,1.22c-1.168,0-2.271-0.468-3.256-1.233c-1.669-1.297-2.992-3.445-3.686-5.6
		c-0.056,0.053-0.12,0.087-0.189,0.1c-0.143,0.025-0.294-0.047-0.439-0.192c-0.293-0.293-0.561-0.886-0.688-1.597
		c-0.167-0.936-0.035-1.761,0.294-1.998c0.045-0.032,0.094-0.054,0.146-0.063c0.119-0.021,0.242,0.025,0.363,0.123v0v0
		c0,0,0-0.011,0.002-0.029c0.041-0.406,0.583-4.962,3.993-4.646l10.429,5.368l0.847-0.816c0.029,0.005,0.057,0.014,0.084,0.027
		C59.312,32.205,59.473,33.073,59.294,34.064z"/>
	<path d="M69.895,78.684H32.107c-0.532,0-0.963,0.435-0.963,0.971c0,0.535,0.431,0.971,0.963,0.971h37.788
		c0.53,0,0.961-0.436,0.961-0.971C70.855,79.118,70.424,78.684,69.895,78.684z"/>
	<path d="M34.165,78.111h33.671c1.253,0,2.268-1.014,2.268-2.268l4.534-21.338c0-1.252-1.015-2.268-2.267-2.268h-1.983h-0.963
		h-0.491H33.067H29.63c-1.253,0-2.268,1.015-2.268,2.268l4.535,21.339C31.897,77.096,32.912,78.111,34.165,78.111z M51,64.168
		c0.666,0,1.205,0.539,1.205,1.205S51.666,66.577,51,66.577s-1.205-0.538-1.205-1.204S50.334,64.168,51,64.168z"/>
</g>
</svg>
