<svg xmlns="http://www.w3.org/2000/svg" xmlns:xlink="http://www.w3.org/1999/xlink" version="1.1" id="Layer_1" x="0px" y="0px" width="100px" height="100px" viewBox="0 0 100 100" enable-background="new 0 0 100 100" xml:space="preserve">
<g>
	<circle fill="none" cx="50" cy="72.59" r="1.771"/>
	<path fill="none" d="M57.336,38.176c-0.008-0.003-0.016-0.008-0.025-0.012c-1.25,1.232-2.639,2.208-4.121,2.795   c-1.006,0.399-2.055,0.62-3.133,0.62s-2.128-0.221-3.134-0.62c-1.496-0.593-2.896-1.582-4.156-2.829c0,0,0,0-0.001,0   c0,1.536-1.174,2.412-1.97,2.829c-0.095,0.05-0.184,0.093-0.266,0.13c-0.199,0.09-0.35,0.144-0.417,0.166v0.001   c0.047,0.395,0.222,0.774,0.503,1.133c1.318,1.685,5.02,4.118,9.385,4.118s8.066-2.433,9.384-4.118   c0.281-0.359,0.457-0.739,0.504-1.133c0.002-0.012,0.002-0.023,0.002-0.035C59.354,41.023,57.367,40.156,57.336,38.176z"/>
	<path fill="none" d="M61.668,23.596c-0.041-0.019-0.082-0.032-0.125-0.04l-1.244,1.199l-15.324-7.888   c-5.01-0.464-5.806,6.229-5.867,6.827c-0.002,0.027-0.004,0.042-0.004,0.042v0.001l0-0.001c-0.178-0.144-0.359-0.21-0.533-0.18   c-0.076,0.013-0.147,0.045-0.214,0.093c-0.483,0.347-0.678,1.561-0.432,2.936c0.187,1.044,0.58,1.916,1.01,2.346   c0.213,0.213,0.435,0.318,0.646,0.282c0.102-0.018,0.195-0.068,0.278-0.146c1.018,3.167,2.962,6.323,5.415,8.229   c1.446,1.124,3.068,1.812,4.784,1.812c1.704,0,3.317-0.681,4.756-1.792c2.465-1.903,4.42-5.07,5.443-8.249   c0.082,0.078,0.176,0.128,0.277,0.146c0.182,0.031,0.371-0.042,0.557-0.199c0.463-0.393,0.9-1.312,1.098-2.429   C62.449,25.128,62.215,23.852,61.668,23.596z"/>
	<path d="M66.672,42.054c-0.139-0.032-0.281-0.062-0.424-0.09c-3.66-3.382-1.162-17.501-1.162-17.501   c0-21.522-14.558-19.405-14.558-19.405C50.35,5.047,50.174,5.041,50,5.035c-0.174,0.006-0.35,0.013-0.527,0.022   c0,0-14.558-2.117-14.558,19.405c0,0,2.498,14.12-1.162,17.501c-0.143,0.028-0.285,0.058-0.424,0.09   c-1.186,0.277-6.613,0.635-9.679,10.54h52.703C73.285,42.689,67.857,42.331,66.672,42.054z M59.889,41.256   c-0.047,0.395-0.223,0.774-0.504,1.133c-1.318,1.685-5.02,4.118-9.384,4.118s-8.067-2.433-9.385-4.118   c-0.281-0.359-0.456-0.739-0.503-1.133v-0.001c0.067-0.022,0.218-0.076,0.417-0.166c0.082-0.038,0.17-0.08,0.266-0.13   c0.796-0.417,1.97-1.293,1.97-2.829c0,0,0.001,0,0.001,0c1.26,1.248,2.66,2.236,4.156,2.829c1.006,0.399,2.056,0.62,3.134,0.62   s2.127-0.221,3.133-0.62c1.482-0.587,2.871-1.563,4.121-2.795c0.01,0.004,0.018,0.008,0.025,0.012   c0.031,1.98,2.018,2.848,2.555,3.046C59.891,41.233,59.891,41.245,59.889,41.256z M62.188,26.584   c-0.197,1.117-0.635,2.036-1.098,2.429c-0.186,0.157-0.375,0.23-0.557,0.199c-0.102-0.018-0.195-0.068-0.277-0.146   c-1.023,3.179-2.979,6.346-5.443,8.249c-1.439,1.111-3.053,1.792-4.756,1.792c-1.715,0-3.338-0.688-4.784-1.812   c-2.453-1.906-4.397-5.062-5.415-8.229c-0.083,0.078-0.176,0.128-0.278,0.146c-0.21,0.037-0.432-0.069-0.646-0.282   c-0.43-0.43-0.823-1.301-1.01-2.346c-0.246-1.375-0.051-2.588,0.432-2.936c0.066-0.047,0.138-0.08,0.214-0.093   c0.174-0.03,0.355,0.037,0.533,0.18l0,0.001v-0.001c0,0,0.001-0.016,0.004-0.042c0.061-0.597,0.857-7.291,5.867-6.827l15.324,7.888   l1.244-1.199c0.043,0.008,0.084,0.021,0.125,0.04C62.215,23.852,62.449,25.128,62.188,26.584z"/>
	<path fill="#000000" d="M77.764,92.149H22.238c-0.781,0-1.415,0.638-1.415,1.425S21.457,95,22.238,95h55.525   c0.781,0,1.414-0.639,1.414-1.426C79.176,92.787,78.541,92.149,77.764,92.149z"/>
	<path d="M25.262,91.307h49.477c1.84,0,3.332-1.491,3.332-3.332l6.664-31.354c0-1.84-1.492-3.332-3.332-3.332h-2.914h-1.416h-0.721   H23.649h-5.051c-1.84,0-3.332,1.491-3.332,3.332l6.663,31.355C21.929,89.815,23.421,91.307,25.262,91.307z M50,70.819   c0.978,0,1.771,0.793,1.771,1.771c0,0.978-0.793,1.77-1.771,1.77c-0.978,0-1.771-0.792-1.771-1.77   C48.229,71.612,49.022,70.819,50,70.819z"/>
</g>
</svg>