<?xml version="1.0" encoding="utf-8"?>
<!-- Generator: Adobe Illustrator 15.1.0, SVG Export Plug-In . SVG Version: 6.00 Build 0)  -->
<!DOCTYPE svg PUBLIC "-//W3C//DTD SVG 1.1//EN" "http://www.w3.org/Graphics/SVG/1.1/DTD/svg11.dtd">
<svg version="1.1" id="Layer_2" xmlns="http://www.w3.org/2000/svg" xmlns:xlink="http://www.w3.org/1999/xlink" x="0px" y="0px"
	 width="100px" height="100px" viewBox="0 0 100 100" enable-background="new 0 0 100 100" xml:space="preserve">
<g id="Symbol_2">
	<g id="Layer_3_7_">
	</g>
</g>
<g id="Symbol_2_copy">
	<g id="Layer_3_5_">
	</g>
</g>
<g id="Symbol_2_copy_2">
	<g id="Layer_3">
	</g>
</g>
<g id="Symbol_2_copy_3">
	<g id="Layer_3_1_">
	</g>
	<g>
		<g>
			<path d="M79.776,35.097l-2.703-4.479c-0.24-0.399-0.673-0.643-1.139-0.643H59.521c-0.466,0-0.898,0.244-1.139,0.643l-2.789,4.623
				c-0.01,0.016-0.013,0.035-0.021,0.051c-0.039,0.071-0.071,0.145-0.098,0.223c-0.01,0.029-0.02,0.057-0.027,0.087
				c-0.021,0.086-0.034,0.174-0.039,0.265c0,0.017-0.004,0.033-0.004,0.049c0,0.003-0.002,0.007-0.002,0.011v4.235l-7.526-6.869l0,0
				c-1.182-1.412-2.994-2.187-4.918-1.947c-3.055,0.379-5.224,3.165-4.845,6.22l2.132,17.566l-3.738,9.566l-11.435,0.419
				c-1.814,0.169-3.196,1.731-3.113,3.571c0.086,1.896,1.691,3.362,3.698,3.272l15.635-0.725l5.175-12.311l9.311,7.135l2.19,11.252
				c0.438,1.768,2.192,2.899,3.998,2.541c1.862-0.369,3.07-2.177,2.681-4.147l-2.896-13.864l-10.458-7.93l-1.27-10.45l5.381,4.735
				v4.393c0,0.734,0.596,1.33,1.33,1.33h21.992c0.733,0,1.329-0.596,1.329-1.33V36.055c0.004-0.042,0.014-0.084,0.014-0.129
				C80.066,35.612,79.958,35.324,79.776,35.097z M69.058,32.634h6.126l1.185,1.963h-7.311V32.634z M60.271,32.634h6.127v1.963
				h-7.312L60.271,32.634z M77.393,51.261H58.061v-2.478l8.585,0.014l0.331-0.002c1.764-0.031,3.093-1.406,3.064-3.073
				c-0.028-1.619-1.326-2.914-2.926-2.963l-8.885-0.014l-0.17-0.154v-5.333h19.332V51.261z M47.472,30.67
				c2.914,0.364,5.569-1.703,5.934-4.617c0.364-2.914-1.704-5.57-4.617-5.934s-5.57,1.703-5.934,4.617
				C42.491,27.649,44.558,30.306,47.472,30.67z"/>
		</g>
	</g>
</g>
</svg>
