<svg xmlns="http://www.w3.org/2000/svg" xmlns:xlink="http://www.w3.org/1999/xlink" version="1.1" id="Layer_2" x="0px" y="0px" width="100px" height="100px" viewBox="0 0 100 100" enable-background="new 0 0 100 100" xml:space="preserve">
<symbol id="Symbol_1" viewBox="-0.55 -8.85 10.95 11.05">
	<g>
		<path fill-rule="evenodd" clip-rule="evenodd" d="M2.4,2.2h5C9-1.5,10-5.183,10.4-8.85H-0.55C-0.15-5.283,0.833-1.6,2.4,2.2z"/>
	</g>
</symbol>
<g id="Symbol_2">
	<g id="Layer_3_7_">
	</g>
</g>
<g id="Symbol_2_copy">
	<g id="Layer_3_5_">
	</g>
</g>
<g id="Symbol_2_copy_2">
	<g id="Layer_3">
	</g>
</g>
<g id="Symbol_2_copy_3">
	<g id="Layer_3_1_">
	</g>
	<g>
		<g>
			<path d="M94.271,27.587l-4.064-6.737c-0.362-0.6-1.012-0.967-1.713-0.967H63.809c-0.701,0-1.351,0.367-1.713,0.967l-4.194,6.953     c-0.015,0.024-0.02,0.052-0.033,0.077c-0.059,0.107-0.107,0.218-0.146,0.336c-0.015,0.044-0.029,0.086-0.041,0.131     c-0.032,0.129-0.052,0.262-0.059,0.399c-0.001,0.025-0.007,0.049-0.007,0.074c0,0.005-0.002,0.011-0.002,0.016v6.37     l-11.319-10.33v0c-1.777-2.123-4.503-3.288-7.396-2.928c-4.595,0.571-7.856,4.759-7.286,9.354l3.206,26.418l-5.622,14.388     L12,72.737c-2.729,0.254-4.806,2.604-4.682,5.37c0.129,2.851,2.544,5.057,5.562,4.922l23.513-1.089l7.783-18.515l14.002,10.73     l3.294,16.923c0.66,2.659,3.297,4.359,6.013,3.821c2.8-0.555,4.617-3.273,4.03-6.238l-4.355-20.85L51.431,55.885l-1.908-15.716     l8.092,7.122v6.606c0,1.104,0.896,2,2,2h33.074c1.104,0,2-0.896,2-2V29.029c0.007-0.064,0.02-0.127,0.02-0.194     C94.708,28.363,94.545,27.929,94.271,27.587z M78.152,23.883h9.213l1.781,2.953H78.152V23.883z M64.938,23.883h9.215v2.953     H63.156L64.938,23.883z M90.688,51.896H61.614V48.17l12.91,0.021l0.497-0.003c2.653-0.046,4.652-2.114,4.609-4.622     c-0.042-2.434-1.993-4.382-4.4-4.456l-13.361-0.021l-0.255-0.232v-8.021h29.074V51.896z M45.688,20.93     c4.382,0.547,8.377-2.561,8.924-6.943s-2.562-8.377-6.943-8.924c-4.381-0.547-8.377,2.561-8.925,6.943     C38.198,16.387,41.306,20.383,45.688,20.93z"/>
		</g>
	</g>
</g>
</svg>