<?xml version="1.0" encoding="utf-8"?>
<!-- Generator: Adobe Illustrator 15.1.0, SVG Export Plug-In . SVG Version: 6.00 Build 0)  -->
<!DOCTYPE svg PUBLIC "-//W3C//DTD SVG 1.1//EN" "http://www.w3.org/Graphics/SVG/1.1/DTD/svg11.dtd">
<svg version="1.1" id="Layer_1" xmlns="http://www.w3.org/2000/svg" xmlns:xlink="http://www.w3.org/1999/xlink" x="0px" y="0px"
	 width="100px" height="100px" viewBox="0 0 100 100" enable-background="new 0 0 100 100" xml:space="preserve">
<g>
	<path d="M38.563,28.235h24.873v6.219h3.108v-6.219c0-1.715-1.39-3.109-3.108-3.109H38.563c-1.717,0-3.109,1.394-3.109,3.109v6.219
		h3.109V28.235z"/>
	<path d="M72.764,37.563H29.235c-1.717,0-3.109,1.394-3.109,3.109v15.547c0,1.719,1.392,3.109,3.109,3.109h6.219v12.438
		c0,1.719,1.392,3.108,3.109,3.108h24.873c1.719,0,3.108-1.39,3.108-3.108V59.328h6.219c1.719,0,3.109-1.391,3.109-3.109V40.672
		C75.873,38.957,74.482,37.563,72.764,37.563z M63.437,71.766H38.563V50h24.873V71.766z M69.654,46.891
		c-1.718,0-3.109-1.391-3.109-3.109c0-1.715,1.392-3.109,3.109-3.109c1.72,0,3.109,1.394,3.109,3.109
		C72.764,45.5,71.374,46.891,69.654,46.891z"/>
	<polygon points="55.663,59.328 51,65.547 46.336,62.438 41.673,68.656 60.327,68.656 	"/>
	<path d="M46.336,60.105c1.288,0,2.332-1.045,2.332-2.332s-1.044-2.332-2.332-2.332c-1.287,0-2.332,1.045-2.332,2.332
		S45.049,60.105,46.336,60.105z"/>
</g>
</svg>
