<svg xmlns="http://www.w3.org/2000/svg" xmlns:xlink="http://www.w3.org/1999/xlink" version="1.1" id="Layer_2" x="0px" y="0px" width="100px" height="100px" viewBox="0 0 100 100" enable-background="new 0 0 100 100" xml:space="preserve">
<symbol id="Symbol_1" viewBox="-0.55 -8.85 10.95 11.05">
	<g>
		<path fill-rule="evenodd" clip-rule="evenodd" d="M2.4,2.2h5C9-1.5,10-5.183,10.4-8.85H-0.55C-0.15-5.283,0.833-1.6,2.4,2.2z"/>
	</g>
</symbol>
<g id="Symbol_2">
	<g id="Layer_3_7_">
	</g>
</g>
<g id="Symbol_2_copy">
	<g id="Layer_3_5_">
	</g>
</g>
<g id="Symbol_2_copy_2">
	<g id="Layer_3">
	</g>
</g>
<g id="Symbol_2_copy_3">
	<g id="Layer_3_1_">
	</g>
	<g>
		<g>
			<path d="M22.525,55.809c-3.674,0-6.652,2.979-6.652,6.652s2.979,6.652,6.652,6.652s6.652-2.979,6.652-6.652     S26.199,55.809,22.525,55.809z M22.525,66.191c-2.061,0-3.73-1.67-3.73-3.73c0-2.06,1.67-3.73,3.73-3.73     c2.06,0,3.73,1.671,3.73,3.73C26.255,64.521,24.585,66.191,22.525,66.191z M22.525,61.391c-0.591,0-1.07,0.479-1.07,1.07     c0,0.592,0.479,1.07,1.07,1.07s1.07-0.479,1.07-1.07C23.595,61.87,23.116,61.391,22.525,61.391z M78.922,61.391     c-0.592,0-1.07,0.479-1.07,1.07c0,0.592,0.479,1.07,1.07,1.07c0.591,0,1.07-0.479,1.07-1.07     C79.992,61.87,79.513,61.391,78.922,61.391z M78.896,55.809c-3.674,0-6.652,2.979-6.652,6.652s2.979,6.652,6.652,6.652     s6.652-2.979,6.652-6.652S82.57,55.809,78.896,55.809z M78.922,66.191c-2.061,0-3.73-1.67-3.73-3.73c0-2.06,1.67-3.73,3.73-3.73     s3.73,1.671,3.73,3.73C82.652,64.521,80.982,66.191,78.922,66.191z M94.354,58.272c0.31-7.322,0.315-14.07-0.48-19.04     c-0.436-2.522-0.902-4.159-1.587-6.459c-0.146-1.093-0.545-1.476-1.753-1.613l-7.353-0.236     C66.91,30.941,49.036,30.67,37.348,31.37c-2.346,0.129-4.06,0.928-5.338,1.782c-3.923,2.56-8.5,5.873-13.833,9.738     c-4.337,1.763-6.719,2.684-9.961,4.706c-1.417,1.095-2.352,2.653-2.462,4.282c0,0,0.167,3.471-0.083,3.255     c0,0-0.458-0.039-0.458,0.216c-0.34,3.78-0.269,4.876,0.183,5.668c1.135,0.93,2.25,1.615,3.985,2.062     c1.807,0.325,3.36,0.49,5.291,0.615c-0.619-5.724,2.639-9.053,7.493-9.513c4.443-0.421,8.407,3.735,8.243,9.112l40.154-0.663     c-0.047-5.155,3.59-8.569,8.296-8.621c4.591-0.05,8.249,3.091,8.283,7.764c3.05-0.012,4.119-0.13,6.828-0.685     c0.571-0.093,0.879-0.175,1.03-0.759v-1.58C94.96,58.478,94.703,58.345,94.354,58.272z M11.837,51.178     c-2.506,0.244-3.349,0.479-4.955,1.041c0.012-1.283,0.324-2.01,1.018-2.962c1.25-1.432,5.081-3.2,8.525-3.481     C14.49,47.374,13.431,48.776,11.837,51.178z M43.573,40.286c-0.441,1.209-3.119,3.028-4.343,3.247l-6.812,0.826     c-0.023-0.043-0.035-0.09-0.066-0.129l-2.325-2.937c-0.296-0.374-0.839-0.438-1.212-0.141c-0.374,0.295-0.438,0.838-0.141,1.213     l1.769,2.234l-3.072,0.373l-0.248-6.184c2.858-2.336,5.027-3.484,8.354-4.922c2.206-0.656,4.547-0.808,7.833-0.694     c0.425,0.007,0.824,0.133,0.812,0.967L43.573,40.286z"/>
		</g>
	</g>
</g>
</svg>