<?xml version="1.0" encoding="utf-8"?>
<!-- Generator: Adobe Illustrator 15.1.0, SVG Export Plug-In . SVG Version: 6.00 Build 0)  -->
<!DOCTYPE svg PUBLIC "-//W3C//DTD SVG 1.1//EN" "http://www.w3.org/Graphics/SVG/1.1/DTD/svg11.dtd">
<svg version="1.1" id="Layer_1" xmlns="http://www.w3.org/2000/svg" xmlns:xlink="http://www.w3.org/1999/xlink" x="0px" y="0px"
	 width="100px" height="100px" viewBox="0 0 100 100" enable-background="new 0 0 100 100" xml:space="preserve">
<g>
	<path fill="#FFFFFF" d="M51.387,98.286c-0.146,0-0.294-0.057-0.407-0.168L9.966,57.105c-0.162-0.167-0.214-0.414-0.123-0.63
		c0.091-0.213,0.3-0.357,0.533-0.357h24.521V3.153c0-0.316,0.259-0.577,0.58-0.577h31.165c0.32,0,0.577,0.26,0.577,0.577v52.965
		h25.182c0.234,0,0.446,0.145,0.537,0.357c0.088,0.222,0.039,0.463-0.129,0.627L51.799,98.118
		C51.684,98.229,51.537,98.286,51.387,98.286z"/>
	<path fill="#FFFFFF" d="M66.641,3.153v53.544h25.759l-41.013,41.01L10.375,56.694h25.1V3.153H66.641 M66.641,2H35.476
		c-0.641,0-1.157,0.516-1.157,1.153v52.388H10.375c-0.466,0-0.888,0.282-1.068,0.716c-0.179,0.435-0.081,0.931,0.25,1.259
		L50.57,98.527c0.227,0.227,0.522,0.338,0.816,0.338c0.297,0,0.594-0.111,0.821-0.338l41.009-41.012
		c0.332-0.328,0.429-0.824,0.25-1.259c-0.184-0.434-0.601-0.716-1.067-0.716H67.795V3.153C67.795,2.514,67.278,2,66.641,2L66.641,2z
		"/>
</g>
</svg>
