<?xml version="1.0" encoding="utf-8"?>
<!-- Generator: Adobe Illustrator 15.1.0, SVG Export Plug-In . SVG Version: 6.00 Build 0)  -->
<!DOCTYPE svg PUBLIC "-//W3C//DTD SVG 1.1//EN" "http://www.w3.org/Graphics/SVG/1.1/DTD/svg11.dtd">
<svg version="1.1" id="Your_Icon" xmlns="http://www.w3.org/2000/svg" xmlns:xlink="http://www.w3.org/1999/xlink" x="0px" y="0px"
	 width="100px" height="100px" viewBox="0 0 100 100" enable-background="new 0 0 100 100" xml:space="preserve">
<g>
	<g>
		<path d="M86.823,34.212l-4.676-4.68c-0.501-0.501-1.314-0.501-1.816,0l-4.238,4.234l-5.468,5.468v-6.422
			c0-0.71-0.573-1.284-1.283-1.284H30.084c-0.706,0-1.284,0.574-1.284,1.285v32.865c0,0.71,0.578,1.283,1.284,1.283h39.257
			c0.71,0,1.283-0.573,1.283-1.283V52.229l11.964-11.967l4.234-4.234C87.328,35.526,87.328,34.712,86.823,34.212z M31.369,34.096
			h36.688v7.708l-5.078,5.082l-3.976-3.973c-0.502-0.501-1.315-0.501-1.816,0L44.38,55.718l-4.119-4.123
			c-0.506-0.501-1.314-0.501-1.819,0l-7.073,7.073V34.096z M68.057,64.392H31.369v-2.093l7.981-7.978l4.123,4.12
			c0.501,0.5,1.315,0.5,1.816,0l12.806-12.807l3.066,3.07l-1.423,1.421c-0.115,0.116-0.209,0.252-0.273,0.402l-3.503,8.178
			c-0.205,0.484-0.098,1.045,0.274,1.417c0.248,0.244,0.574,0.377,0.908,0.377c0.171,0,0.343-0.034,0.506-0.106l8.182-3.503
			c0.15-0.062,0.286-0.154,0.402-0.27l1.824-1.824v9.595H68.057z M61.262,52.857l2.236,2.24l-3.91,1.674L61.262,52.857z
			 M68.435,50.785c-0.03,0.03-0.056,0.06-0.086,0.09l-3.327,3.322l-2.86-2.863l1.695-1.696c0.009-0.008,0.021-0.017,0.03-0.026
			c0.013-0.013,0.025-0.026,0.038-0.042l13.174-13.17l2.86,2.86L68.435,50.785z M81.172,38.048l-2.86-2.86l2.929-2.929l2.858,2.86
			L81.172,38.048z"/>
	</g>
</g>
<g>
	<path d="M41.592,48.172c-2.752,0-4.992-2.239-4.992-4.992s2.239-4.992,4.992-4.992c2.753,0,4.992,2.24,4.992,4.992
		S44.344,48.172,41.592,48.172z M41.592,40.758c-1.336,0-2.423,1.087-2.423,2.423c0,1.336,1.087,2.423,2.423,2.423
		c1.336,0,2.423-1.086,2.423-2.423C44.015,41.845,42.928,40.758,41.592,40.758z"/>
</g>
</svg>
