<?xml version="1.0" encoding="utf-8"?>
<!-- Generator: Adobe Illustrator 15.1.0, SVG Export Plug-In . SVG Version: 6.00 Build 0)  -->
<!DOCTYPE svg PUBLIC "-//W3C//DTD SVG 1.1//EN" "http://www.w3.org/Graphics/SVG/1.1/DTD/svg11.dtd">
<svg version="1.1" id="Layer_1" xmlns="http://www.w3.org/2000/svg" xmlns:xlink="http://www.w3.org/1999/xlink" x="0px" y="0px"
	 width="16px" height="16px" viewBox="0 0 16 16" enable-background="new 0 0 16 16" xml:space="preserve">
<g>
	<path fill="#FFFFFF" d="M13.994,12.799c0,0.575-0.48,1.055-1.056,1.055H3.056C2.48,13.854,2,13.374,2,12.799V2.916
		C2,2.34,2.48,1.86,3.056,1.86h9.882c0.575,0,1.056,0.479,1.056,1.056V12.799z M11.991,3.42c-0.517-0.181-1.716-0.181-1.716-0.181
		c-0.73,0-1.162,0.288-1.475,0.696c-0.3,0.396-0.312,1.02-0.312,1.427v0.072v0.432v0.432H7.542v1.379h0.947v4.798h1.787V7.677h1.416
		l0.107-1.379h-1.523V5.866V5.362V5.219c0-0.372,0.336-0.504,0.708-0.504c0,0,0.372,0,0.768,0.12L11.991,3.42z"/>
</g>
</svg>
