<?xml version="1.0" encoding="utf-8"?>
<!-- Generator: Adobe Illustrator 15.1.0, SVG Export Plug-In . SVG Version: 6.00 Build 0)  -->
<!DOCTYPE svg PUBLIC "-//W3C//DTD SVG 1.1//EN" "http://www.w3.org/Graphics/SVG/1.1/DTD/svg11.dtd">
<svg version="1.1" id="Layer_1" xmlns="http://www.w3.org/2000/svg" xmlns:xlink="http://www.w3.org/1999/xlink" x="0px" y="0px"
	 width="100px" height="100px" viewBox="0 0 100 100" enable-background="new 0 0 100 100" xml:space="preserve">
<g id="Your_Icon">
	<polygon points="40.456,44.741 36.794,44.741 35.747,22.234 37.23,16.778 39.409,22.28 	"/>
	<path d="M72.789,24.206c-0.709-1.978-1.206-3.63-4.563-3.362c-3.359,0.269-4.013,1.518-4.948,3.787
		c-0.935,2.272-3.807,19.533-3.807,19.533l2.778-0.093c0,0,2.592-5.606,3.417-6.836c0.827-1.229,4.239-2.02,4.885-3.181
		C71.195,32.895,73.538,26.298,72.789,24.206z M69.657,30.809c-0.098,0.956-1.646,2.372-2.056,2.945
		c-0.409,0.571-2.38,0.983-3.074,0.911c-0.693-0.07-0.966-1.677-0.966-1.677s1.43-6.251,2.051-8.029
		c0.618-1.776,2.927-2.61,3.986-2.132c1.508,0.681,1.25,3.194,1.196,3.716C70.741,27.063,69.754,29.854,69.657,30.809z"/>
	<path d="M51.697,30.61c0.158,1.319,3.016,3.341,3.316,4.793c0.301,1.451,0.756,8.73,0.756,8.73l2.66-0.109
		c0,0,3.571-16.927,3.566-19.382c-0.004-2.457-0.138-3.857-3.143-5.377c-3.005-1.522-4.094-0.181-5.497,1.381
		C51.87,22.301,51.539,29.292,51.697,30.61z M54.314,23.566c0.148-0.502,0.864-2.928,2.515-2.986
		c1.163-0.042,2.982,1.604,2.885,3.484c-0.101,1.88-1.145,8.207-1.145,8.207s-0.861,1.383-1.529,1.185
		c-0.67-0.197-2.337-1.324-2.5-2.008c-0.161-0.684-1.056-2.583-0.787-3.502C54.024,27.023,54.167,24.066,54.314,23.566z"/>
	<path d="M51.433,39.214l-0.562-10.098c-0.05-0.869-0.794-1.527-1.664-1.479l-6.427,0.358c-0.869,0.049-1.536,0.785-1.487,1.655
		l0.562,10.098L51.433,39.214z"/>
	<polygon points="51.064,44.597 42.713,44.468 42.381,40.294 50.731,39.727 	"/>
	<polygon points="63.822,45.809 33.829,45.809 36.148,67.239 36.148,80 60.724,80 60.724,67.239 	"/>
</g>
</svg>
