<?xml version="1.0" encoding="utf-8"?>
<!-- Generator: Adobe Illustrator 15.1.0, SVG Export Plug-In . SVG Version: 6.00 Build 0)  -->
<!DOCTYPE svg PUBLIC "-//W3C//DTD SVG 1.1//EN" "http://www.w3.org/Graphics/SVG/1.1/DTD/svg11.dtd">
<svg version="1.1" id="Layer_1" xmlns="http://www.w3.org/2000/svg" xmlns:xlink="http://www.w3.org/1999/xlink" x="0px" y="0px"
	 width="32px" height="16px" viewBox="0 0 32 16" enable-background="new 0 0 32 16" xml:space="preserve">
<path fill="#FFFFFF" d="M4.475,9.302c-0.049,0-0.088,0.038-0.094,0.094l-0.175,1.321l0.175,1.299
	c0.006,0.055,0.045,0.093,0.094,0.093s0.088-0.038,0.096-0.092l0,0l0,0l0,0l0.206-1.3L4.57,9.395
	C4.562,9.34,4.523,9.302,4.475,9.302z M5.454,8.58c-0.009-0.057-0.05-0.096-0.099-0.096c-0.051,0-0.093,0.04-0.1,0.096l-0.233,2.137
	l0.233,2.09c0.007,0.056,0.049,0.097,0.1,0.097c0.049,0,0.09-0.04,0.099-0.096l0.266-2.091L5.454,8.58z M9.14,6.608
	c-0.097,0-0.175,0.079-0.18,0.179l-0.187,3.932L8.96,13.26c0.005,0.099,0.083,0.178,0.18,0.178c0.096,0,0.175-0.08,0.18-0.179v0.001
	l0.211-2.541L9.319,6.787C9.314,6.688,9.235,6.608,9.14,6.608z M7.232,7.976c-0.074,0-0.134,0.059-0.141,0.138l-0.209,2.604
	l0.209,2.521c0.007,0.078,0.066,0.137,0.141,0.137c0.072,0,0.133-0.059,0.14-0.137l0.237-2.521L7.372,8.112
	C7.365,8.034,7.305,7.976,7.232,7.976z M11.078,13.437c0.119,0,0.216-0.096,0.221-0.219l0.183-2.498l-0.183-5.234
	c-0.004-0.122-0.102-0.218-0.221-0.218s-0.217,0.096-0.221,0.219l-0.161,5.233l0.161,2.499
	C10.861,13.341,10.959,13.437,11.078,13.437z M15.047,13.449c0.165,0,0.3-0.136,0.303-0.302v0.002v-0.002l0.127-2.427L15.35,4.677
	c-0.003-0.166-0.138-0.302-0.303-0.302c-0.163,0-0.299,0.135-0.302,0.302l-0.113,6.043c0,0.003,0.113,2.429,0.113,2.429
	C14.748,13.313,14.884,13.449,15.047,13.449z M13.048,13.439c0.143,0,0.257-0.114,0.262-0.261v0.002l0.154-2.46l-0.155-5.272
	c-0.004-0.146-0.119-0.26-0.261-0.26c-0.145,0-0.259,0.114-0.262,0.26l-0.138,5.272l0.138,2.459
	C12.789,13.325,12.904,13.439,13.048,13.439z M8.183,13.416c0.084,0,0.153-0.068,0.159-0.157l0.226-2.541L8.342,8.301
	c-0.006-0.09-0.074-0.157-0.159-0.157c-0.087,0-0.154,0.067-0.16,0.158l-0.198,2.416l0.198,2.541
	C8.028,13.348,8.096,13.416,8.183,13.416z M6.289,13.276c0.062,0,0.113-0.048,0.119-0.116l0.253-2.442L6.409,8.182
	c-0.007-0.067-0.058-0.117-0.12-0.117s-0.112,0.05-0.118,0.117l-0.223,2.536l0.223,2.441C6.177,13.228,6.227,13.276,6.289,13.276z
	 M14.043,5.36c-0.154,0-0.278,0.123-0.281,0.281l-0.126,5.079l0.126,2.444c0.003,0.155,0.127,0.278,0.281,0.278
	c0.155,0,0.278-0.122,0.282-0.28v0.003l0.141-2.445l-0.141-5.08C14.321,5.483,14.198,5.36,14.043,5.36z M10.105,13.441
	c0.107,0,0.195-0.087,0.201-0.198l0.195-2.523l-0.195-4.83c-0.007-0.112-0.094-0.2-0.201-0.2s-0.196,0.088-0.2,0.2L9.73,10.72
	l0.175,2.524C9.909,13.354,9.998,13.441,10.105,13.441z M12.301,13.204v-0.002l0.169-2.481L12.301,5.31
	c-0.005-0.135-0.11-0.24-0.242-0.24c-0.131,0-0.236,0.105-0.24,0.24l-0.15,5.41l0.15,2.483c0.004,0.133,0.109,0.238,0.24,0.238
	c0.132,0,0.237-0.105,0.242-0.239V13.204z M25.073,7.602c-0.4,0-0.783,0.081-1.132,0.228c-0.232-2.638-2.444-4.707-5.144-4.707
	c-0.659,0-1.303,0.13-1.871,0.35c-0.221,0.086-0.28,0.173-0.282,0.344v9.29c0.002,0.178,0.142,0.327,0.316,0.346
	c0.008,0.001,8.06,0.004,8.112,0.004c1.616,0,2.927-1.311,2.927-2.927S26.689,7.602,25.073,7.602z M16.046,3.808
	c-0.175,0-0.319,0.144-0.322,0.321l-0.132,6.593l0.132,2.394c0.003,0.175,0.147,0.318,0.322,0.318c0.176,0,0.32-0.144,0.323-0.321
	v0.003l0.143-2.394l-0.143-6.593C16.366,3.951,16.222,3.808,16.046,3.808z"/>
</svg>
