<?xml version="1.0" encoding="utf-8"?>
<!-- Generator: Adobe Illustrator 15.1.0, SVG Export Plug-In . SVG Version: 6.00 Build 0)  -->
<!DOCTYPE svg PUBLIC "-//W3C//DTD SVG 1.1//EN" "http://www.w3.org/Graphics/SVG/1.1/DTD/svg11.dtd">
<svg version="1.1" id="Layer_1" xmlns="http://www.w3.org/2000/svg" xmlns:xlink="http://www.w3.org/1999/xlink" x="0px" y="0px"
	 width="16px" height="16px" viewBox="0 0 16 16" enable-background="new 0 0 16 16" xml:space="preserve">
<g>
	<path fill="#FFFFFF" d="M13.119,8.465c-0.709,2.951-3.826,4.676-6.707,4.676c-2.241,0-4.259-1.002-5.581-2.838
		c0.668,0.64,1.586,1.002,2.519,1.002c1.016,0,1.962-0.418,2.658-1.155c-0.375,0.056-1.002-0.111-1.002-0.585
		c0-0.306,0.32-0.515,0.571-0.626C4.854,9.021,4.186,8.744,3.852,8.076c0.264-0.293,0.584-0.362,0.96-0.391
		C4.019,7.491,3.406,7.102,3.253,6.267C3.489,6.197,3.74,6.155,3.99,6.155c0.042,0,0.084,0,0.111,0
		C3.489,5.821,2.877,5.223,2.905,4.472L2.919,4.36C4.13,4.819,5.354,5.334,6.495,5.975c0.39,0.223,0.738,0.557,1.058,0.877
		C7.998,5.627,8.61,4.123,9.738,3.386C9.724,3.553,9.641,3.692,9.529,3.817c0.292-0.278,0.682-0.474,1.085-0.528
		c-0.042,0.306-0.473,0.473-0.737,0.57c0.348-0.111,0.821-0.348,1.169-0.348c0.098,0,0.209,0.027,0.209,0.152
		c0,0.251-0.96,0.459-1.211,0.557c1.587-0.167,2.755,1.295,3.034,2.7c0.166,0.056,0.334,0.083,0.5,0.083
		c0.32,0,0.863-0.098,1.155-0.264c-0.25,0.598-0.918,0.876-1.53,0.918c0.348,0.153,0.793,0.209,1.154,0.209
		c0.14,0,0.293-0.014,0.432-0.042C14.357,8.299,13.746,8.479,13.119,8.465z"/>
</g>
</svg>
